<svg width="33" height="33" viewBox="0 0 33 33" fill="none" xmlns="http://www.w3.org/2000/svg">
<g opacity="0.8">
<path d="M15.3333 12.6667H18L18 8.66667L22 8.66667V6L18 6V2L15.3333 2L15.3333 6L11.3333 6L11.3333 8.66667L15.3333 8.66667L15.3333 12.6667ZM10 24.6667C8.53333 24.6667 7.34667 25.8667 7.34667 27.3333C7.34667 28.8 8.53333 30 10 30C11.4667 30 12.6667 28.8 12.6667 27.3333C12.6667 25.8667 11.4667 24.6667 10 24.6667ZM23.3333 24.6667C21.8667 24.6667 20.68 25.8667 20.68 27.3333C20.68 28.8 21.8667 30 23.3333 30C24.8 30 26 28.8 26 27.3333C26 25.8667 24.8 24.6667 23.3333 24.6667ZM10.2267 20.3333L10.2667 20.1733L11.4667 18L21.4 18C22.4 18 23.28 17.4533 23.7333 16.6267L28.88 7.28L26.56 6H26.5467L25.08 8.66667L21.4 15.3333L12.04 15.3333L11.8667 14.9733L8.88 8.66667L7.61333 6L6.36 3.33333L2 3.33333L2 6L4.66667 6L9.46667 16.12L7.66667 19.3867C7.45333 19.76 7.33333 20.2 7.33333 20.6667C7.33333 22.1333 8.53333 23.3333 10 23.3333L26 23.3333V20.6667L10.56 20.6667C10.3867 20.6667 10.2267 20.52 10.2267 20.3333Z" fill="#2C1720" fill-opacity="0.86"/>
</g>
</svg>
