<svg width="32" height="32" viewBox="0 0 32 32" fill="none" xmlns="http://www.w3.org/2000/svg">
<path d="M18.8822 5.85526V3.60963C18.8822 3.27372 19.176 3 19.5391 3C19.6855 3 19.8206 3.04458 19.9301 3.11923L28.6983 8.36724C29.0033 8.54867 29.0916 8.92503 28.8961 9.20703C28.8413 9.28686 28.7687 9.3501 28.6872 9.39676L19.892 14.6604C19.5871 14.8419 19.1816 14.76 18.9872 14.4769C18.9168 14.3753 18.8833 14.2613 18.8833 14.1483H18.881V11.9555H15.8033C11.4343 11.9555 8.13211 13.8922 8.12324 13.8974C7.81604 14.0746 7.41163 13.9876 7.22062 13.7024C7.09774 13.5189 7.09327 13.2981 7.18711 13.1167C8.66058 9.93995 11.077 8.13488 13.4653 7.11171C15.4962 6.24291 17.5036 5.94639 18.8801 5.85411L18.8822 5.85526ZM14.1178 26.1447V28.3904C14.1178 28.7263 13.824 29 13.4609 29C13.3145 29 13.1794 28.9554 13.0699 28.8808L4.30167 23.6328C3.9967 23.4513 3.90845 23.075 4.10394 22.793C4.15868 22.7131 4.23129 22.6499 4.31284 22.6032L13.1079 17.3396C13.4129 17.1581 13.8184 17.24 14.0128 17.5231C14.0832 17.6247 14.1167 17.7387 14.1167 17.8517H14.119V20.0445H17.1967C21.5657 20.0445 24.8679 18.1078 24.8768 18.1026C25.184 17.9254 25.5884 18.0124 25.7794 18.2976C25.9034 18.4811 25.9067 18.7019 25.8129 18.8833C24.3394 22.06 21.923 23.8651 19.5347 24.8883C17.5038 25.7571 15.4964 26.0536 14.1199 26.1459L14.1178 26.1447ZM12.804 27.2738V25.5693H12.8063C12.8063 25.2417 13.0855 24.9721 13.4408 24.9618C14.6707 24.9255 16.8157 24.7098 18.984 23.7819C20.6865 23.0531 22.4046 21.8805 23.7004 19.9977C22.1856 20.5866 19.8697 21.2615 17.1955 21.2615H13.462C13.0989 21.2615 12.8051 20.9888 12.8051 20.6519V18.9661L5.86543 23.1192L12.8051 27.2735L12.804 27.2738ZM20.195 4.72617V6.43062H20.1927C20.1927 6.75825 19.9134 7.0278 19.5582 7.03818C18.3282 7.07446 16.1833 7.29011 14.015 8.21802C12.3125 8.94687 10.5943 10.1195 9.29855 12.0023C10.8134 11.4134 13.1293 10.7385 15.8035 10.7385H19.537C19.9001 10.7385 20.1939 11.0111 20.1939 11.3481V13.0339L27.1335 8.8807L20.1939 4.72646L20.195 4.72617Z" fill="#83272A"/>
</svg>
