<svg width="110" height="110" viewBox="0 0 110 110" fill="none" xmlns="http://www.w3.org/2000/svg">
<path d="M55.9798 61.7696C55.9915 62.4102 56.0032 63.0118 55.9837 63.1915C55.8079 64.7384 55.4329 65.6876 54.7962 66.1876C54.1009 66.7345 52.9134 66.8673 50.9446 66.6212C50.4173 66.5587 49.9719 66.9181 49.9055 67.4259C49.843 67.9337 50.2024 68.3985 50.7102 68.465C51.3235 68.5431 51.968 68.6017 52.6047 68.6017C53.8195 68.6017 55.0109 68.3829 55.9445 67.6486C56.9953 66.8243 57.5929 65.4728 57.8273 63.4025C57.8585 63.1134 57.8546 62.6603 57.839 61.7384C57.7765 58.4103 57.6163 49.5664 60.9874 48.1364C62.8976 47.32 66.046 49.0309 70.0851 53.0739C73.007 55.9997 75.1046 55.9997 76.3429 55.488C78.1593 54.738 79.1632 52.4528 79.171 49.0505L79.1866 41.0036C79.1866 40.0114 79.3546 38.7106 80.1359 38.1559C80.9366 37.5895 82.2648 37.8785 83.2375 38.2223C83.6398 38.3629 84.0382 38.5309 84.4406 38.6988C85.6789 39.2144 86.9562 39.7574 88.4133 39.6754C88.925 39.648 89.3195 39.2105 89.2922 38.6988C89.2648 38.1871 88.8117 37.7809 88.3156 37.8199C87.2883 37.8629 86.2492 37.441 85.1554 36.984C84.7218 36.8043 84.2921 36.6246 83.8546 36.4684C81.839 35.7535 80.2257 35.8121 79.0616 36.6324C77.9132 37.4449 77.3272 38.9097 77.3233 40.9918L77.3077 49.0387C77.3038 51.566 76.6749 53.3278 75.6319 53.7614C74.628 54.1716 73.085 53.4411 71.3936 51.7497C66.6436 46.9919 62.9991 45.2497 60.2566 46.4138C55.7332 48.3435 55.9016 57.4146 55.9798 61.7696Z" fill="#83272A"/>
<path d="M49.2535 51.7652C49.1011 49.8433 48.3863 48.3355 47.2379 47.6597C44.2184 45.8902 42.4176 47.2144 41.7848 47.8667C40.3668 49.3315 40.1481 51.9019 41.2887 53.7183C41.8317 54.5816 43.4371 56.4019 46.9762 55.48C46.3903 57.3628 45.1832 59.1597 43.1871 59.6714C42.691 59.7964 42.3902 60.3042 42.5191 60.8003C42.6246 61.2222 43.0035 61.4995 43.4176 61.4995C43.4957 61.4995 43.5738 61.4917 43.648 61.4722C46.9761 60.6206 48.6441 57.3433 49.1207 54.4605C51.4176 52.7183 53.5387 48.9644 54.3082 44.9957C54.9098 41.8902 55.1676 36.0426 50.1441 31.7887C42.7457 25.5231 42.2339 21.8707 42.5894 20.2497C42.8941 18.8474 44.0035 18.07 44.9371 17.8083C45.4293 17.6677 45.7184 17.156 45.5817 16.6638C45.441 16.1716 44.9332 15.8825 44.4372 16.0193C42.9841 16.4255 41.2575 17.6482 40.777 19.8552C40.2379 22.3318 41.2145 26.6599 48.9489 33.2072C53.2497 36.8478 53.0114 41.9377 52.488 44.6452C51.9255 47.5475 50.6247 50.1218 49.2536 51.7663L49.2535 51.7652ZM47.3902 53.3707C47.2613 53.4332 47.1363 53.4879 47.0152 53.5269C45.0699 54.1754 43.5933 53.8902 42.8629 52.7262C42.1793 51.6364 42.2965 50.0035 43.1207 49.1559C43.4879 48.7769 43.9293 48.6324 44.3863 48.6324C45.0425 48.6324 45.734 48.9293 46.2965 49.2613C46.9957 49.6715 47.5737 51.2183 47.3902 53.3707Z" fill="#83272A"/>
<path d="M69.4346 79.3042C72.9385 77.1987 74.7198 71.6284 73.7198 68.5422C73.1925 66.9211 71.9581 66.0695 70.3253 66.2141C69.8136 66.257 69.4347 66.7102 69.4815 67.2219C69.5245 67.7336 69.9776 68.1125 70.4893 68.0656C70.9933 68.0227 71.626 68.1008 71.9581 69.1164C72.7121 71.4445 71.1339 76.1164 68.4815 77.7102C66.5323 78.8821 64.3721 78.261 62.0596 75.8664C59.5908 73.3078 57.4658 72.1555 55.583 72.343C54.2588 72.4758 53.1299 73.2532 52.2275 74.6594C51.9502 75.093 52.0752 75.6672 52.5088 75.9446C52.9385 76.222 53.5127 76.097 53.794 75.6634C54.3799 74.7454 55.0284 74.265 55.7667 74.1907C57.0323 74.0618 58.7355 75.093 60.7237 77.1555C62.9307 79.4407 64.9151 80.1321 66.5089 80.1321C67.7433 80.1321 68.7471 79.7143 69.4346 79.3042Z" fill="#83272A"/>
<path d="M71.3945 59.0977C71.3945 58.5859 70.9805 58.168 70.4648 58.168C69.9531 58.168 69.5352 58.582 69.5352 59.0977C69.5352 60.4063 68.4688 61.4727 67.1602 61.4727C66.6484 61.4727 66.2305 61.8867 66.2305 62.4024C66.2305 62.9141 66.6445 63.332 67.1602 63.332C69.4961 63.3281 71.3945 61.4298 71.3945 59.0977Z" fill="#391FFF"/>
<path d="M65.3047 36.3907C67.6367 36.3907 69.5352 34.4923 69.5352 32.1563C69.5352 31.6445 69.1211 31.2266 68.6055 31.2266C68.0938 31.2266 67.6758 31.6406 67.6758 32.1563C67.6758 33.4649 66.6094 34.5313 65.3008 34.5313C64.7891 34.5313 64.3711 34.9453 64.3711 35.4609C64.375 35.9727 64.793 36.3907 65.3047 36.3907Z" fill="#391FFF"/>
<path d="M98.3359 30.3008C98.3359 29.7891 97.9219 29.3711 97.4063 29.3711C96.8945 29.3711 96.4766 29.7852 96.4766 30.3008C96.4766 31.6094 95.4102 32.6758 94.1016 32.6758C93.5899 32.6758 93.1719 33.0898 93.1719 33.6055C93.1719 34.1172 93.5859 34.5352 94.1016 34.5352C96.4375 34.5313 98.3359 32.6329 98.3359 30.3008Z" fill="#391FFF"/>
<path d="M54.1562 13.1641C56.4882 13.1641 58.3867 11.2657 58.3867 8.92969C58.3867 8.41797 57.9727 8 57.457 8C56.9453 8 56.5273 8.41406 56.5273 8.92969C56.5273 10.2383 55.4609 11.3047 54.1523 11.3047C53.6406 11.3047 53.2227 11.7187 53.2227 12.2344C53.2266 12.75 53.6445 13.1641 54.1562 13.1641Z" fill="#391FFF"/>
<path d="M28.1445 51.2539C30.4765 51.2539 32.375 49.3555 32.375 47.0195C32.375 46.5078 31.9609 46.0898 31.4453 46.0898C30.9336 46.0898 30.5156 46.5039 30.5156 47.0195C30.5156 48.3281 29.4492 49.3945 28.1406 49.3945C27.6289 49.3945 27.2109 49.8086 27.2109 50.3242C27.2187 50.8359 27.6328 51.2539 28.1445 51.2539Z" fill="#391FFF"/>
<path d="M48.7266 64.3672C48.7266 63.8555 48.3125 63.4375 47.7969 63.4375C47.2852 63.4375 46.8672 63.8516 46.8672 64.3672C46.8672 65.6758 45.8008 66.7422 44.4922 66.7422C43.9805 66.7422 43.5625 67.1563 43.5625 67.6719C43.5625 68.1836 43.9766 68.6016 44.4922 68.6016C46.8281 68.5977 48.7266 66.6993 48.7266 64.3672Z" fill="#391FFF"/>
<path d="M33.7187 60.542C36.0507 60.542 37.9492 58.6436 37.9492 56.3076C37.9492 55.7959 37.5352 55.3779 37.0195 55.3779C36.5078 55.3779 36.0898 55.792 36.0898 56.3076C36.0898 57.6162 35.0234 58.6826 33.7148 58.6826C33.2031 58.6826 32.7852 59.0967 32.7852 59.6123C32.7891 60.124 33.207 60.542 33.7187 60.542Z" fill="#391FFF"/>
<path d="M97.9571 54.2617C99.9649 54.2617 102.75 50.3086 102.75 48.5703C102.75 46.832 99.9689 42.8867 97.9649 42.8867C95.9571 42.8867 93.1719 46.8398 93.1719 48.5781C93.1719 50.3164 95.9531 54.2617 97.9571 54.2617ZM97.961 44.7461C98.754 44.8125 100.895 47.6016 100.895 48.5703C100.895 49.5508 98.7501 52.3437 97.961 52.4023C97.168 52.3359 95.0274 49.5468 95.0274 48.5781C95.0313 47.5976 97.1719 44.8047 97.961 44.7461Z" fill="#0A2380"/>
<path d="M63.0313 30.2344C65.0391 30.2344 67.8243 26.2813 67.8243 24.543C67.8243 22.8047 65.0431 18.8594 63.0391 18.8594C61.0313 18.8594 58.2422 22.8125 58.2422 24.5508C58.2461 26.2891 61.0274 30.2344 63.0313 30.2344ZM63.0352 20.7188C63.8282 20.7852 65.9688 23.5743 65.9688 24.543C65.9688 25.5234 63.8243 28.3164 63.0352 28.375C62.2422 28.3086 60.1016 25.5195 60.1016 24.5508C60.1016 23.5703 62.2461 20.7774 63.0352 20.7188Z" fill="#0A2380"/>
<path d="M82.7461 70.9492C82.7461 72.6875 85.5273 76.6328 87.5313 76.6328C89.5391 76.6328 92.3243 72.6797 92.3243 70.9414C92.3243 69.2031 89.5431 65.2578 87.5391 65.2578C85.5313 65.2578 82.7461 69.2109 82.7461 70.9492ZM87.5352 67.1172C88.3282 67.1836 90.4688 69.9727 90.4688 70.9414C90.4688 71.918 88.3243 74.7148 87.5352 74.7734C86.7422 74.707 84.6016 71.9179 84.6016 70.9492C84.6016 69.9727 86.7461 67.1758 87.5352 67.1172Z" fill="#0A2380"/>
<path d="M28.6836 39.751C30.6914 39.751 33.4766 35.7979 33.4766 34.0596C33.4766 32.3213 30.6954 28.376 28.6914 28.376C26.6836 28.376 23.8945 32.3291 23.8945 34.0674C23.8984 35.8057 26.6797 39.751 28.6836 39.751ZM28.6875 30.2354C29.4805 30.3018 31.6211 33.0909 31.6211 34.0596C31.6211 35.04 29.4766 37.833 28.6875 37.8916C27.8946 37.8252 25.7539 35.0361 25.7539 34.0674C25.7578 33.0908 27.8984 30.294 28.6875 30.2354Z" fill="#0A2380"/>
<path d="M82.4102 27.3555C84.418 27.3555 87.2071 23.4024 87.2071 21.6641C87.2071 19.9258 84.4259 15.9805 82.4219 15.9805C80.4141 15.9805 77.6289 19.9336 77.6289 21.6719C77.625 23.4102 80.4063 27.3555 82.4102 27.3555ZM82.4141 17.8399C83.2071 17.9063 85.3477 20.6954 85.3477 21.6641C85.3477 22.6445 83.2032 25.4375 82.4141 25.4961C81.6211 25.4297 79.4805 22.6406 79.4805 21.6719C79.4844 20.6953 81.625 17.8985 82.4141 17.8399Z" fill="#0A2380"/>
<path d="M20.1179 102.024C20.1687 102.047 20.2156 102.067 20.2664 102.082C21.1726 102.422 22.0242 102.621 22.7703 102.621C23.1648 102.621 23.5359 102.571 23.868 102.465C23.9773 102.43 24.0789 102.375 24.1687 102.305L35.5167 93.2619C35.5245 93.258 35.5285 93.2541 35.5363 93.2463L46.2863 84.6799C46.2941 84.6721 46.298 84.6643 46.3058 84.6565C46.3253 84.6408 46.3449 84.6291 46.3644 84.6096C47.0128 83.9612 47.3449 83.0666 47.3449 81.9455C47.3488 78.8361 44.6887 74.1643 40.5676 70.0435C35.6379 65.1099 28.8606 61.399 26.0016 64.2466C25.982 64.2661 25.9703 64.2935 25.9469 64.313C25.943 64.3169 25.9352 64.3208 25.9313 64.3247L8.31425 86.4497C8.24394 86.5396 8.18925 86.6411 8.15409 86.7505C7.39628 89.188 9.48219 93.4224 13.3416 97.2815C15.6228 99.5667 18.0242 101.203 20.1179 102.024ZM23.1687 100.731C22.7078 100.824 22.0554 100.727 21.2976 100.477L16.3484 79.3478L21.2468 73.1994L26.9812 97.6914L23.1687 100.731ZM35.5477 90.8674L32.993 79.9574C33.0907 80.0472 33.1883 80.1371 33.286 80.2269C36.4383 83.0316 39.7352 84.9339 42.3485 85.4535L35.5477 90.8674ZM41.2118 83.1877C41.1806 83.176 41.1532 83.1682 41.122 83.1564C40.747 83.008 40.3564 82.8322 39.9579 82.633C39.8329 82.5705 39.7079 82.4963 39.579 82.4299C39.2977 82.2814 39.0165 82.1291 38.7313 81.9572C38.579 81.8674 38.4227 81.7658 38.2665 81.6682C38.0008 81.5002 37.7313 81.3244 37.4579 81.1369C37.2938 81.0236 37.1298 80.9103 36.9657 80.7932C36.6922 80.5978 36.4188 80.3908 36.1454 80.1799C35.9852 80.0549 35.8251 79.9338 35.6688 79.8049C35.3719 79.5666 35.079 79.3127 34.786 79.0588C34.6493 78.9416 34.5126 78.8283 34.3798 78.7072C33.954 78.3244 33.5282 77.926 33.1103 77.508C32.6962 77.094 32.2978 76.6721 31.915 76.2502C31.786 76.1096 31.6689 75.9651 31.5439 75.8244C31.2939 75.5393 31.0517 75.2541 30.8173 74.9651C30.6845 74.801 30.5556 74.633 30.4267 74.469C30.2197 74.2034 30.0204 73.9377 29.829 73.6721C29.7079 73.5041 29.5868 73.3362 29.4736 73.1643C29.29 72.8987 29.122 72.6369 28.954 72.3752C28.8525 72.2151 28.7509 72.0549 28.6571 71.8987C28.4892 71.6174 28.3407 71.3401 28.1923 71.0666C28.122 70.9338 28.0439 70.801 27.9814 70.6721C27.7821 70.2737 27.6064 69.883 27.4579 69.508C27.4462 69.4807 27.4423 69.4572 27.4306 69.4299C27.3095 69.1135 27.2118 68.8088 27.1298 68.5119C29.704 69.2346 33.0751 71.4572 36.122 74.4963C39.1611 77.5275 41.3837 80.9025 42.1025 83.4846C41.8173 83.3987 41.5204 83.3049 41.2118 83.1877ZM25.1688 68.2777C25.6923 70.9339 27.6376 74.2777 30.4969 77.4496L33.9383 92.1446L28.5867 96.4102L22.7195 71.3482L25.1688 68.2777ZM28.6688 65.1254C30.9735 65.1254 35.2235 67.3246 39.2548 71.3598C43.5634 75.6684 45.4892 79.7817 45.4892 81.9458C45.4892 82.5552 45.3408 83.0083 45.0517 83.2974C44.8252 83.5239 44.4892 83.6529 44.0673 83.7036C43.4619 80.6645 41.0009 76.727 37.4384 73.1726C33.872 69.614 29.9345 67.157 26.9074 66.5476C26.9582 66.1258 27.0871 65.7898 27.3137 65.5633C27.6145 65.2742 28.075 65.1254 28.6688 65.1254ZM9.89182 87.4534L14.8723 81.1995L19.1535 99.4845C17.7551 98.6798 16.1965 97.5157 14.6535 95.9689C11.2238 92.5431 9.57542 89.0159 9.89182 87.4534Z" fill="#83272A"/>
</svg>
