<svg width="142" height="142" viewBox="0 0 142 142" fill="none" xmlns="http://www.w3.org/2000/svg">
<path fill-rule="evenodd" clip-rule="evenodd" d="M70.5563 5.4679C34.6308 5.4679 5.46875 34.6327 5.46875 70.5554C5.46875 106.478 34.6336 135.643 70.5563 135.643C106.479 135.643 135.644 106.478 135.644 70.5554C135.644 34.6299 106.479 5.4679 70.5563 5.4679ZM70.5563 14.1462C101.689 14.1462 126.965 39.4225 126.965 70.5576C126.965 101.69 101.689 126.966 70.5563 126.966C39.4236 126.966 14.1449 101.69 14.1449 70.5576C14.1449 39.425 39.4211 14.1462 70.5563 14.1462Z" fill="white"/>
<path fill-rule="evenodd" clip-rule="evenodd" d="M92.4982 78.4983C95.1531 76.7241 96.7509 73.7474 96.7509 70.5542C96.7509 67.3599 95.1532 64.3831 92.4982 62.609L68.0381 46.3062C65.1086 44.3544 61.3427 44.1714 58.2399 45.8336C55.1371 47.4916 53.1982 50.7279 53.1982 54.2471V86.8598C53.1982 90.3793 55.1372 93.6166 58.2399 95.2732C61.3427 96.9355 65.1086 96.7535 68.0381 94.8006L92.4982 78.4983ZM87.6859 71.2744L63.2257 87.5804C62.9608 87.7581 62.6185 87.7764 62.3364 87.6246C62.0543 87.4717 61.8767 87.181 61.8767 86.8602V54.2475C61.8767 53.9267 62.0543 53.636 62.3364 53.4842C62.6185 53.3324 62.9608 53.3497 63.2257 53.5273L87.6859 69.8345C87.9249 69.9949 88.0723 70.264 88.0723 70.5547C88.0723 70.8454 87.9248 71.1145 87.6859 71.2749V71.2744Z" fill="white"/>
</svg>
