<svg width="32" height="32" viewBox="0 0 32 32" fill="none" xmlns="http://www.w3.org/2000/svg">
<path d="M30.5181 18.0809L26.9674 13.6523C26.6188 13.2162 26.0974 12.9756 25.5056 12.9756H20.4242C20.162 12.9756 19.9511 13.1697 19.9511 13.405V20.9365H1.47312C1.21092 20.9365 1 21.1306 1 21.3659V25.1097C1 25.3477 1.21386 25.5391 1.47312 25.5391H4.71611V25.6003C4.71611 26.9244 5.90113 28 7.36003 28C8.81894 28 10.004 26.9244 10.004 25.6003V25.5391L20.4243 25.5378H22.415V25.599C22.415 26.9231 23.6 27.9987 25.0589 27.9987C26.5178 27.9987 27.7028 26.9231 27.7028 25.599V25.5378H30.5269C30.7891 25.5378 31 25.3437 31 25.1084L30.9985 19.4182C30.9985 18.9209 30.8403 18.4824 30.5181 18.0809ZM7.35992 27.1412C6.42685 27.1412 5.66519 26.4499 5.66519 25.603C5.66519 24.7561 6.42685 24.0648 7.35992 24.0648C8.29299 24.0648 9.05465 24.7561 9.05465 25.603C9.05465 26.4526 8.29299 27.1412 7.35992 27.1412ZM19.9481 24.6803H9.80031C9.40335 23.8122 8.45858 23.2033 7.35854 23.2033C6.25995 23.2033 5.31518 23.8162 4.91676 24.6803H1.94619V21.798H19.9453L19.9481 24.6803ZM25.0587 27.1412C24.1256 27.1412 23.364 26.4499 23.364 25.603C23.364 24.7561 24.1256 24.0648 25.0587 24.0648C25.9918 24.0648 26.7534 24.7561 26.7534 25.603C26.7534 26.4526 25.9918 27.1412 25.0587 27.1412ZM27.5005 24.6803C27.1035 23.8122 26.1588 23.2033 25.0587 23.2033C23.9601 23.2033 23.0154 23.8162 22.6169 24.6803H20.9002V13.8373H25.5084C25.8013 13.8373 26.0328 13.9463 26.2056 14.1603L29.7563 18.5889C29.9584 18.8402 30.0521 19.1061 30.0521 19.4198V22.7183H28.9828C28.7206 22.7183 28.5097 22.9124 28.5097 23.1477C28.5097 23.383 28.7236 23.5771 28.9828 23.5771H30.0521V24.6792L27.5005 24.6766L27.5005 24.6803ZM29.3153 19.3505C29.3973 19.2069 29.3827 19.0341 29.2772 18.9012L25.7867 14.5485C25.6973 14.4368 25.5538 14.3717 25.4044 14.3717H21.9622C21.7 14.3717 21.489 14.5658 21.489 14.8011V19.1565C21.489 19.3945 21.7029 19.5859 21.9622 19.5859H28.8948C29.0706 19.5846 29.2362 19.4928 29.3153 19.3505ZM22.4336 18.7244V15.2317H25.1596L27.9602 18.7244H22.4336ZM23.9746 20.7079C23.9746 20.9459 23.7607 21.1373 23.5015 21.1373H21.9605C21.6983 21.1373 21.4874 20.9432 21.4874 20.7079C21.4874 20.4726 21.7013 20.2785 21.9605 20.2785H23.5015C23.7607 20.2798 23.9746 20.47 23.9746 20.7079ZM8.02323 25.6018C8.02323 25.9315 7.72734 26.204 7.3597 26.204C6.99643 26.204 6.69617 25.9354 6.69617 25.6018C6.69617 25.272 6.99205 24.9995 7.3597 24.9995C7.72296 24.9995 8.02323 25.2721 8.02323 25.6018ZM25.722 25.6018C25.722 25.9315 25.4261 26.204 25.0585 26.204C24.6952 26.204 24.3949 25.9354 24.3949 25.6018C24.3949 25.272 24.6908 24.9995 25.0585 24.9995C25.4217 24.9995 25.722 25.2721 25.722 25.6018ZM2.7881 20.2958H9.90114C10.1633 20.2958 10.3743 20.1017 10.3743 19.8664V13.4117C10.3743 13.1737 10.1604 12.9823 9.90114 12.9823H2.7866C2.52441 12.9823 2.31349 13.1764 2.31349 13.4117V19.8677C2.31642 20.1017 2.52592 20.2958 2.7881 20.2958ZM6.89078 13.8398V15.0655H5.79951V13.8398H6.89078ZM3.26399 13.8398H4.85035V15.4936C4.85035 15.7316 5.06421 15.923 5.32347 15.923H7.36682C7.62902 15.923 7.83994 15.7289 7.83994 15.4936V13.8398H9.4263V19.4354H3.26384L3.26399 13.8398ZM11.5811 20.2958H18.6941C18.9563 20.2958 19.1672 20.1017 19.1672 19.8664V13.4117C19.1672 13.1737 18.9534 12.9823 18.6941 12.9823H11.5796C11.3174 12.9823 11.1065 13.1764 11.1065 13.4117V19.8677C11.105 20.1017 11.3189 20.2958 11.5811 20.2958ZM15.6838 13.8398V15.0655H14.5881V13.8398H15.6838ZM12.0541 13.8398H13.6404V15.4936C13.6404 15.7316 13.8543 15.923 14.1135 15.923H16.1569C16.4191 15.923 16.63 15.7289 16.63 15.4936V13.8398H18.2164V19.4354H12.0539L12.0541 13.8398ZM2.78788 12.3148H9.90091C10.1631 12.3148 10.374 12.1207 10.374 11.8854V5.42941C10.374 5.19144 10.1602 5 9.90091 5H2.78638C2.52418 5 2.31326 5.1941 2.31326 5.42941V11.8854C2.31619 12.1247 2.52569 12.3148 2.78788 12.3148ZM6.89056 5.86155V7.08734H5.79928V5.86155H6.89056ZM3.26377 5.86155H4.85013V7.51543C4.85013 7.7534 5.06399 7.94484 5.32324 7.94484H7.3666C7.62879 7.94484 7.83971 7.75074 7.83971 7.51543V5.86155H9.42607V11.4572H3.26362L3.26377 5.86155ZM11.5809 12.3148H18.6939C18.9561 12.3148 19.167 12.1207 19.167 11.8854V5.42941C19.167 5.19144 18.9532 5 18.6939 5H11.5794C11.3172 5 11.1063 5.1941 11.1063 5.42941V11.8854C11.1048 12.1247 11.3187 12.3148 11.5809 12.3148ZM15.6836 5.86155V7.08734H14.5879V5.86155H15.6836ZM12.0538 5.86155H13.6402V7.51543C13.6402 7.7534 13.8541 7.94484 14.1133 7.94484H16.1567C16.4189 7.94484 16.6298 7.75074 16.6298 7.51543V5.86155H18.2161V11.4572H12.0537L12.0538 5.86155Z" fill="#83272A"/>
</svg>
