<svg width="32" height="32" viewBox="0 0 32 32" fill="none" xmlns="http://www.w3.org/2000/svg">
<path d="M22.0504 20.145V18.9646C22.0504 18.661 22.1582 18.403 22.3779 18.1781L23.2123 17.3439C23.9544 16.6019 23.9544 15.3946 23.2123 14.6525L22.3779 13.8183C22.1582 13.5986 22.0504 13.3406 22.0504 13.0318V11.8515C22.0504 10.8028 21.1974 9.94988 20.1485 9.94988H18.9679C18.6591 9.94988 18.401 9.84314 18.1813 9.6224L17.3469 8.7882C16.9883 8.42963 16.5105 8.2317 16.0016 8.2317C15.4927 8.2317 15.0149 8.42963 14.6563 8.7882L13.825 9.6193C13.597 9.8421 13.3379 9.94988 13.0342 9.94988H11.8536C10.8006 9.94988 9.94448 10.8027 9.94448 11.8515V13.0318C9.94448 13.3468 9.83876 13.6028 9.61591 13.8194L8.79191 14.6515C8.42811 15.0111 8.22807 15.4888 8.22807 15.9987C8.22807 16.5086 8.42811 16.9873 8.78881 17.3428L9.61695 18.179C9.83979 18.4018 9.94344 18.6516 9.94344 18.9656V20.1459C9.94344 20.7884 10.2627 21.3552 10.7498 21.7014L8.59397 25.4279C8.39704 25.7854 8.4271 26.2061 8.67274 26.5243C8.92046 26.8465 9.32054 26.9854 9.72371 26.8839L11.6039 26.3782L12.1076 28.2508C12.206 28.6456 12.5211 28.9295 12.9419 28.9927C12.9844 28.9979 13.0279 29 13.0704 29C13.428 29 13.7493 28.8166 13.9286 28.5026L15.9974 24.9129L18.0724 28.5108C18.259 28.8186 18.5814 28.9989 18.942 28.9989C18.9856 28.9989 19.0312 28.9958 19.0757 28.9906C19.4779 28.9284 19.8002 28.6372 19.8956 28.2569L20.4014 26.3781L22.2877 26.8859C22.6837 26.9854 23.0837 26.8465 23.3315 26.5242C23.5771 26.2051 23.6072 25.7843 23.4051 25.4206L21.2513 21.6994C21.7332 21.3522 22.0504 20.7854 22.0504 20.145ZM13.2362 28.1068C13.1947 28.1794 13.1232 28.2125 13.0476 28.2042C12.9553 28.1897 12.8983 28.141 12.8755 28.0509L12.2661 25.7876C12.2091 25.5752 11.9914 25.4498 11.7779 25.5068L9.52048 26.1141C9.43341 26.1358 9.35464 26.1099 9.30075 26.0395C9.24789 25.97 9.24374 25.8944 9.28416 25.8198L11.4836 22.0198C11.6028 22.0426 11.7251 22.056 11.8505 22.056H13.031C13.3347 22.056 13.5928 22.1638 13.8177 22.3835L14.652 23.2177C14.8251 23.3908 15.0272 23.5265 15.247 23.6208L15.534 24.1182L13.2362 28.1068ZM22.7106 25.8115C22.7551 25.8933 22.751 25.969 22.6981 26.0384C22.6442 26.1078 22.5665 26.1348 22.4856 26.1151L20.222 25.5058C20.0095 25.4477 19.7919 25.5742 19.7338 25.7866L19.1223 28.0571C19.0943 28.1701 18.9928 28.197 18.9637 28.2022C18.8477 28.2177 18.7834 28.1524 18.7544 28.1058L16.3529 23.941C16.3529 23.94 16.3518 23.939 16.3518 23.939L16.2461 23.7555C16.6607 23.7027 17.0452 23.5172 17.3448 23.2167L18.1791 22.3825C18.3988 22.1628 18.6569 22.055 18.9658 22.055H20.1463C20.2717 22.055 20.394 22.0415 20.5132 22.0187L22.7106 25.8115ZM21.2543 20.1451C21.2543 20.7586 20.7578 21.2591 20.1484 21.2591H18.9679C18.4517 21.2591 17.9853 21.4529 17.6184 21.8198L16.784 22.654C16.5757 22.8623 16.2969 22.9773 16.0015 22.9773C15.7051 22.9773 15.4273 22.8623 15.219 22.654L14.3805 21.8156C14.0011 21.4467 13.5482 21.2591 13.0351 21.2591H11.8546C11.241 21.2591 10.7414 20.7596 10.7414 20.1451V18.9648C10.7414 18.4415 10.5528 17.9876 10.1828 17.6166L9.35257 16.7793C9.14113 16.571 9.02504 16.2933 9.02504 15.999C9.02504 15.7036 9.14112 15.4259 9.35567 15.2145L10.1786 14.3844C10.5528 14.0197 10.7425 13.5647 10.7425 13.031V11.8507C10.7425 11.2403 11.242 10.745 11.8556 10.745H13.0362C13.5503 10.745 14.0032 10.5574 14.3856 10.1843L15.22 9.35013C15.4283 9.14184 15.7071 9.0268 16.0025 9.0268C16.299 9.0268 16.5767 9.14183 16.7851 9.35013L17.6194 10.1843C17.9863 10.5512 18.4527 10.745 18.9689 10.745H20.1494C20.7599 10.745 21.2553 11.2414 21.2553 11.8507V13.031C21.2553 13.5471 21.4491 14.0134 21.8161 14.3803L22.6504 15.2145C23.0816 15.6466 23.0816 16.3482 22.6504 16.7803L21.8119 17.6187C21.4419 17.9979 21.2553 18.4508 21.2553 18.9648L21.2543 20.1451ZM3 16.0021C3 15.7824 3.17827 15.6042 3.398 15.6042H6.15086C6.3706 15.6042 6.54887 15.7824 6.54887 16.0021C6.54887 16.2218 6.3706 16.4001 6.15086 16.4001H3.398C3.17827 16.4001 3 16.2218 3 16.0021ZM20.7236 7.8113C20.5329 7.70145 20.4676 7.45793 20.5775 7.26724L21.9539 4.88377C22.0638 4.69309 22.3074 4.62781 22.4981 4.73765C22.6888 4.8475 22.7541 5.09102 22.6442 5.28171L21.2678 7.66518C21.1942 7.79264 21.0605 7.86415 20.9226 7.86415C20.8553 7.86415 20.7858 7.84757 20.7236 7.8113ZM7.81134 20.7285C7.9212 20.9192 7.8559 21.1627 7.66519 21.2726L5.28131 22.6477C5.21912 22.684 5.15071 22.7006 5.08231 22.7006C4.94446 22.7006 4.81076 22.6291 4.73716 22.5016C4.62729 22.3109 4.69259 22.0674 4.8833 21.9576L7.26719 20.5814C7.45893 20.4726 7.7025 20.5378 7.81134 20.7285ZM10.7322 7.66512L9.35572 5.28165C9.24586 5.09097 9.31116 4.84745 9.50187 4.73759C9.69258 4.62774 9.93614 4.69303 10.046 4.88371L11.4224 7.26718C11.5323 7.45786 11.467 7.70138 11.2763 7.81124C11.2141 7.84751 11.1457 7.86513 11.0773 7.86513C10.9405 7.86409 10.8068 7.79258 10.7322 7.66512ZM29 16.0021C29 16.2218 28.8217 16.4001 28.602 16.4001H25.8491C25.6294 16.4001 25.4511 16.2218 25.4511 16.0021C25.4511 15.7824 25.6294 15.6042 25.8491 15.6042H28.602C28.8217 15.6042 29 15.7824 29 16.0021ZM24.7318 20.5826L27.1157 21.9588C27.3064 22.0686 27.3717 22.3122 27.2618 22.5029C27.1882 22.6303 27.0545 22.7018 26.9167 22.7018C26.8493 22.7018 26.7809 22.6842 26.7177 22.649L24.3338 21.2728C24.1431 21.1629 24.0778 20.9194 24.1877 20.7287C24.2986 20.538 24.5421 20.4728 24.7318 20.5826ZM15.9964 6.54825C15.7767 6.54825 15.5984 6.37001 15.5984 6.15032V3.39793C15.5984 3.17824 15.7767 3 15.9964 3C16.2161 3 16.3944 3.17824 16.3944 3.39793V6.15032C16.3944 6.37001 16.2161 6.54825 15.9964 6.54825ZM7.81134 11.2747C7.73775 11.4021 7.60404 11.4736 7.46619 11.4736C7.39882 11.4736 7.33041 11.456 7.26719 11.4208L4.8833 10.0446C4.69259 9.93473 4.62729 9.69121 4.73716 9.50052C4.84702 9.30985 5.09059 9.24456 5.28131 9.35441L7.66519 10.7306C7.8559 10.8415 7.9212 11.085 7.81134 11.2747ZM27.1156 10.0446L24.7317 11.4208C24.6695 11.457 24.6011 11.4747 24.5327 11.4747C24.3948 11.4747 24.2612 11.4032 24.1875 11.2757C24.0777 11.085 24.143 10.8415 24.3337 10.7316L26.7176 9.35545C26.9083 9.2456 27.1519 9.31089 27.2617 9.50156C27.3716 9.6912 27.3063 9.93473 27.1156 10.0446ZM15.9964 11.0912C13.2892 11.0912 11.0856 13.2944 11.0856 16.0012C11.0856 18.708 13.2891 20.9112 15.9964 20.9112C18.7037 20.9112 20.9073 18.708 20.9073 16.0012C20.9073 13.2944 18.7037 11.0912 15.9964 11.0912ZM15.9964 20.1164C13.7276 20.1164 11.8816 18.2708 11.8816 16.0023C11.8816 13.7338 13.7275 11.8882 15.9964 11.8882C18.2653 11.8882 20.1112 13.7338 20.1112 16.0023C20.1112 18.2707 18.2653 20.1164 15.9964 20.1164ZM18.1823 13.5444H18.1803L18.1347 13.5433C17.8735 13.5433 17.634 13.6439 17.4433 13.8335L15.2667 16.017L14.5506 15.2957C14.1681 14.9258 13.5182 14.9216 13.1275 15.2998C12.9285 15.4988 12.8228 15.7475 12.8228 16.017C12.8228 16.2916 12.9254 16.5403 13.1192 16.7341L14.5485 18.1631C14.7402 18.3548 14.9952 18.4605 15.2657 18.4605C15.5373 18.4605 15.7922 18.3548 15.9829 18.1631L18.8831 15.2635C19.2676 14.8666 19.2655 14.2282 18.8789 13.8406C18.683 13.6438 18.4425 13.5444 18.1823 13.5444ZM18.3171 14.705L15.4212 17.6004C15.3393 17.6833 15.1942 17.6833 15.1113 17.6004L13.682 16.1713C13.6374 16.1268 13.6177 16.0791 13.6177 16.0159C13.6177 15.9662 13.6302 15.9206 13.6851 15.8656C13.7266 15.8252 13.7815 15.8035 13.8406 15.8035C13.8997 15.8035 13.9546 15.8263 13.9909 15.8605L14.9838 16.8605C15.0584 16.9351 15.16 16.9776 15.2657 16.9776C15.3715 16.9776 15.473 16.9351 15.5477 16.8605L18.0061 14.3941C18.0569 14.3433 18.1005 14.3371 18.1336 14.3371L18.1616 14.3381C18.228 14.3381 18.2694 14.3557 18.3161 14.4013C18.401 14.4863 18.399 14.6211 18.3171 14.705Z" fill="#83272A"/>
</svg>
