<svg width="32" height="32" viewBox="0 0 32 32" fill="none" xmlns="http://www.w3.org/2000/svg">
<path d="M29.7679 18.7597L28.3372 19.6275C28.0119 19.8482 27.7743 20.186 27.6612 20.5706C27.768 20.8233 27.8302 21.0945 27.8302 21.3694C27.8302 21.7675 27.7133 22.1546 27.4884 22.4899C27.0856 23.089 26.4059 23.4182 25.7159 23.4182C25.5304 23.4182 25.3424 23.3935 25.1594 23.3455C25.1785 23.7523 25.0717 24.1689 24.824 24.535L24.7782 24.6016C24.3818 25.1946 23.7084 25.5163 23.0223 25.5163C22.7681 25.5163 22.5115 25.4657 22.2675 25.3745C22.2802 25.785 22.1671 26.1918 21.9321 26.5419C21.6233 26.9993 21.1481 27.3124 20.5954 27.4221C20.4556 27.4505 20.3159 27.4628 20.1786 27.4628C19.7657 27.4628 19.3616 27.3432 19.0148 27.1127L18.8877 27.0301C18.8712 27.4431 18.7289 27.8375 18.4646 28.179C18.0516 28.7128 17.4176 29 16.7734 29C16.3706 29 15.964 28.8891 15.6019 28.6561L8.31629 23.9445C7.4383 23.3762 6.83982 22.5083 6.63145 21.5024C6.43323 20.5396 5.75345 19.7482 4.8132 19.3821L3.30752 18.7978C3.05721 18.7004 2.93651 18.4255 3.03434 18.1826C3.13472 17.9398 3.41807 17.8227 3.66837 17.9176L5.17406 18.5019C6.41925 18.9851 7.32141 20.0355 7.58443 21.3138C7.74072 22.0707 8.19306 22.7241 8.8525 23.153L16.142 27.8672C16.6426 28.1926 17.3199 28.0792 17.6807 27.612C17.8688 27.3655 17.9437 27.0659 17.8916 26.7663C17.8523 26.5395 17.7417 26.3373 17.5791 26.1759L14.9247 24.4303C14.912 24.4205 14.9019 24.4118 14.8892 24.402C14.8764 24.3921 14.8637 24.3835 14.8498 24.3699C14.8396 24.3601 14.8307 24.3477 14.8205 24.3354C14.8104 24.3231 14.7977 24.3108 14.7875 24.2972C14.7811 24.2849 14.7748 24.2725 14.7684 24.259C14.7621 24.243 14.7519 24.2306 14.7456 24.2146C14.7392 24.2023 14.7354 24.1862 14.7329 24.1739C14.7291 24.1579 14.7227 24.1419 14.7202 24.1271C14.7163 24.111 14.7163 24.0987 14.7163 24.0827C14.7125 24.0667 14.7125 24.0506 14.7125 24.0358C14.7125 24.0198 14.7163 24.0038 14.7163 23.989C14.7163 23.973 14.7163 23.9606 14.7202 23.9446C14.724 23.9286 14.7303 23.9126 14.7367 23.8978C14.7405 23.8855 14.743 23.8694 14.7494 23.8571C14.7557 23.8411 14.7659 23.8251 14.7748 23.8127C14.7811 23.8004 14.7875 23.7881 14.7939 23.7745C14.8002 23.7646 14.8104 23.756 14.8167 23.7462C14.8294 23.7301 14.8421 23.7141 14.8561 23.7018C14.8599 23.6981 14.8663 23.6956 14.8688 23.6894C14.8879 23.6734 14.9082 23.6549 14.9311 23.6426C14.9311 23.6426 14.9349 23.6426 14.9349 23.6389C14.9603 23.6229 14.987 23.6106 15.0162 23.5982C15.0454 23.5859 15.0747 23.5797 15.1077 23.5736H15.1115C15.1407 23.5674 15.17 23.5637 15.203 23.5637C15.2093 23.5637 15.2157 23.5637 15.2221 23.5674C15.2475 23.5674 15.2703 23.5711 15.297 23.5736C15.3097 23.5773 15.3199 23.5797 15.3326 23.5834C15.3517 23.5896 15.372 23.5933 15.3885 23.5995C15.405 23.6056 15.4177 23.6155 15.4342 23.6216C15.447 23.6278 15.4635 23.634 15.4762 23.6438L15.48 23.6475L17.9526 25.2476C18.0378 25.3019 18.1153 25.3647 18.1902 25.4276L19.5663 26.33C19.8166 26.4939 20.1165 26.5506 20.4087 26.4939C20.7048 26.4372 20.9551 26.2696 21.1215 26.0267C21.2842 25.7839 21.3401 25.4929 21.2778 25.2094C21.2156 24.9259 21.0402 24.6818 20.7861 24.5277L17.5524 22.5492C17.5359 22.5393 17.527 22.5307 17.513 22.5171C17.5003 22.5073 17.4876 22.4986 17.4774 22.4888C17.4647 22.4764 17.4545 22.4641 17.4444 22.4506C17.4342 22.4382 17.4253 22.4284 17.4152 22.416C17.405 22.4037 17.3986 22.3877 17.3923 22.3754C17.3859 22.363 17.3758 22.3507 17.3694 22.3371C17.3631 22.3248 17.3593 22.3088 17.3567 22.2965C17.3504 22.2804 17.344 22.2644 17.3402 22.2496C17.3364 22.2373 17.3364 22.225 17.3338 22.2114C17.33 22.1929 17.3275 22.1769 17.3275 22.1572C17.3275 22.1448 17.3313 22.135 17.3313 22.1226C17.3313 22.1041 17.3313 22.0844 17.3351 22.0659C17.3389 22.0561 17.3415 22.0474 17.3453 22.0339C17.3491 22.0154 17.3554 21.9932 17.3618 21.9735C17.3656 21.9612 17.3745 21.9513 17.3809 21.939C17.391 21.9229 17.3974 21.9044 17.4063 21.8884C17.4126 21.8786 17.419 21.8699 17.4291 21.8638C17.4418 21.8477 17.4545 21.8292 17.4685 21.8169C17.4685 21.8169 17.4723 21.8169 17.4723 21.8132C17.6058 21.6801 17.8141 21.6332 17.9933 21.6998C18.0035 21.7035 18.0098 21.7097 18.0187 21.7121C18.0416 21.722 18.0606 21.7306 18.081 21.7442L22.4556 24.4081C22.9664 24.7175 23.65 24.5721 23.9778 24.0827L24.0236 24.0161C24.359 23.5206 24.2116 22.8512 23.7021 22.527L19.603 19.9234C19.3781 19.7817 19.3133 19.4883 19.4632 19.2676C19.4823 19.2393 19.5026 19.2134 19.5255 19.1924C19.6233 19.0975 19.7529 19.0507 19.8863 19.0568C19.974 19.0605 20.0591 19.0815 20.1366 19.132L25.1163 22.2976C25.65 22.6255 26.3488 22.4776 26.6843 21.9759C26.805 21.7959 26.8698 21.5876 26.8698 21.3731C26.8698 21.1869 26.8215 21.0032 26.73 20.8393C26.6423 20.6778 26.5153 20.5484 26.3565 20.4485L16.5714 14.2366C16.5092 14.1959 16.4342 14.1824 16.3605 14.1984C16.2855 14.2144 16.2233 14.2551 16.1813 14.318L15.0848 15.9501C14.6299 16.6281 13.9273 17.0953 13.1103 17.263C12.2933 17.4307 11.461 17.2753 10.7621 16.834L10.5995 16.7305C10.1828 16.4654 10.0659 15.923 10.3365 15.5187L12.4025 12.4418C12.0518 12.48 11.7062 12.5712 11.3911 12.7191C11.0557 12.8769 10.6948 12.9558 10.3301 12.9558C9.8651 12.9558 9.40005 12.8264 8.99982 12.5737L3.20954 8.64851C2.98846 8.50058 2.93255 8.20348 3.08884 7.98901C3.24131 7.77451 3.54754 7.72027 3.7686 7.8719L9.5462 11.7845C9.95914 12.0458 10.5093 12.0816 10.9642 11.8634C11.6478 11.5416 12.4242 11.4122 13.1789 11.4849C13.4229 11.2803 13.696 11.1089 14.0022 10.9894L16.2169 10.1314C17.4177 9.66784 18.7671 9.72085 19.9222 10.283L22.2906 11.4344C23.0225 11.7906 23.8814 11.7721 24.593 11.3875L29.209 7.88393C29.4199 7.72245 29.7299 7.7582 29.8951 7.96653C30.0616 8.17116 30.0247 8.47196 29.81 8.63221L25.1683 12.1566C25.1492 12.1689 25.1289 12.1813 25.1098 12.1948C24.1048 12.7532 22.8888 12.7853 21.8531 12.2836L19.4847 11.1322C18.5801 10.6909 17.5203 10.649 16.5801 11.0126L14.3654 11.8706C13.9982 12.0124 13.6856 12.259 13.4709 12.5844L11.1977 15.9731L11.2956 16.0384C11.7771 16.3441 12.3489 16.4489 12.9092 16.3355C13.4721 16.2221 13.9537 15.9004 14.2688 15.4331L15.3654 13.801C15.547 13.5261 15.8304 13.34 16.162 13.2734C16.4911 13.2068 16.8253 13.2672 17.1086 13.4472L26.8771 19.6515C26.9101 19.6737 26.9457 19.6959 26.9749 19.7181C27.1769 19.3704 27.459 19.0709 27.8008 18.8379L29.2544 17.9577C29.4819 17.8184 29.7843 17.8887 29.9279 18.1093C30.0676 18.33 29.999 18.6197 29.7678 18.759L29.7679 18.7597ZM16.5001 6.84022C16.7695 6.84022 16.9881 6.62819 16.9881 6.36685V4.47337C16.9881 4.21203 16.7695 4 16.5001 4C16.2308 4 16.0122 4.21203 16.0122 4.47337V6.36685C16.0122 6.62819 16.2308 6.84022 16.5001 6.84022ZM10.9512 8.59441C11.0452 8.68563 11.1723 8.73371 11.2956 8.73371C11.4188 8.73371 11.5459 8.68686 11.6399 8.59441C11.8318 8.40827 11.8318 8.1087 11.6399 7.92503L10.3388 6.66271C10.1469 6.47657 9.83814 6.47657 9.64883 6.66271C9.45697 6.84885 9.45697 7.14842 9.64883 7.33209L10.9512 8.59441ZM21.7046 8.73371C21.8278 8.73371 21.9549 8.68686 22.0489 8.59441L23.35 7.33209C23.5419 7.14594 23.5419 6.84638 23.35 6.66271C23.1582 6.47657 22.8494 6.47657 22.6601 6.66271L21.359 7.92503C21.1671 8.11117 21.1671 8.41074 21.359 8.59441C21.4543 8.68563 21.5813 8.73371 21.7046 8.73371Z" fill="#83272A"/>
</svg>
